<svg width="14" height="16" viewBox="0 0 14 16" fill="none" xmlns="http://www.w3.org/2000/svg">
<path d="M7 15.9999C7.53043 15.9999 8.03914 15.7892 8.41421 15.4141C8.78929 15.039 9 14.5303 9 13.9999H5C5 14.5303 5.21071 15.039 5.58579 15.4141C5.96086 15.7892 6.46957 15.9999 7 15.9999ZM7.995 1.0989C8.00896 0.959852 7.99362 0.819424 7.94997 0.686672C7.90632 0.553919 7.83533 0.431788 7.74158 0.328156C7.64783 0.224525 7.5334 0.141693 7.40567 0.0850029C7.27794 0.0283129 7.13974 -0.000976563 7 -0.000976562C6.86026 -0.000976563 6.72206 0.0283129 6.59433 0.0850029C6.4666 0.141693 6.35217 0.224525 6.25842 0.328156C6.16467 0.431788 6.09368 0.553919 6.05003 0.686672C6.00638 0.819424 5.99104 0.959852 6.005 1.0989C4.87472 1.3288 3.85862 1.94226 3.12876 2.8354C2.39891 3.72854 2.00015 4.84647 2 5.9999C2 7.0979 1.5 11.9999 0 12.9999H14C12.5 11.9999 12 7.0979 12 5.9999C12 3.5799 10.28 1.5599 7.995 1.0989V1.0989Z" fill="black"/>
</svg>
